<svg width="500" height="500" viewBox="0 0 500 500" fill="none" xmlns="http://www.w3.org/2000/svg">
<path d="M25 75C25 47.3858 47.3858 25 75 25H250C374.264 25 475 125.736 475 250V425C475 452.614 452.614 475 425 475H75C47.3858 475 25 452.614 25 425V75Z" fill="#BEE950"/>
<path d="M156.497 227.25H181.247C189.247 227.25 197.747 227 206.747 226.5C215.914 226 224.164 224.917 231.497 223.25C232.997 218.083 234.164 213 234.997 208C235.997 202.833 236.747 197.667 237.247 192.5H162.747V164H271.247C271.414 184.333 269.247 203.417 264.747 221.25C260.247 239.083 253.664 255.5 244.997 270.5C236.497 285.5 226.08 299 213.747 311C201.414 323 187.58 333.333 172.247 342L149.747 320C166.58 311 180.664 300.75 191.997 289.25C203.497 277.583 212.747 265.25 219.747 252.25C213.247 253.25 206.497 253.917 199.497 254.25C192.664 254.583 186.58 254.75 181.247 254.75H156.497V227.25ZM304.747 376.25V152.25H338.247V376.25H304.747Z" fill="#222222"/>
</svg>
