<svg width="144" height="144" viewBox="0 0 144 144" fill="none" xmlns="http://www.w3.org/2000/svg">
<path d="M7.2 21.6C7.2 13.6471 13.6471 7.19995 21.6 7.19995H72C107.788 7.19995 136.8 36.2119 136.8 72V122.4C136.8 130.353 130.353 136.8 122.4 136.8H21.6C13.6471 136.8 7.2 130.353 7.2 122.4V21.6Z" fill="#BEE950"/>
<path d="M45.0711 65.4479H52.1991C54.5031 65.4479 56.9511 65.3759 59.5431 65.2319C62.1832 65.0879 64.5592 64.776 66.6711 64.2959C67.1031 62.8078 67.4392 61.3439 67.6791 59.9039C67.9671 58.4158 68.1831 56.928 68.3271 55.4399H46.8711V47.2319H78.1191C78.1672 53.0878 77.5431 58.584 76.2471 63.7199C74.9511 68.8558 73.0552 73.5839 70.5591 77.9039C68.1111 82.2239 65.111 86.1119 61.5591 89.5679C58.0072 93.0239 54.023 95.9998 49.6071 98.4959L43.1271 92.1599C47.975 89.5679 52.0312 86.6159 55.2951 83.3039C58.6071 79.9438 61.2711 76.3919 63.2871 72.6479C61.4151 72.9359 59.4711 73.128 57.4551 73.2239C55.4872 73.3198 53.735 73.3679 52.1991 73.3679H45.0711V65.4479ZM87.7671 108.36V43.8479H97.4151V108.36H87.7671Z" fill="#222222"/>
</svg>
