<svg width="638" height="124" viewBox="0 0 638 124" fill="none" xmlns="http://www.w3.org/2000/svg">
<path d="M80.8476 97.464H52.4516C47.2436 87.544 38.1916 78.616 27.8996 64.852C25.4196 65.348 22.8156 65.596 20.3356 65.596C20.5836 77.872 21.2036 89.156 21.8236 97.464H-0.000358909C2.85164 73.284 2.85164 26.66 -0.000358909 4.09199C7.43964 3.71998 16.7396 2.60398 23.4356 -1.23978e-05C20.5836 14.756 19.8396 38.192 20.2116 59.892C33.3556 58.156 48.9796 44.888 50.7156 32.24C57.5356 31.868 70.6796 31.496 77.4996 29.016C74.1516 42.408 60.7596 54.064 44.3916 60.512C54.5596 72.168 68.5716 89.28 80.8476 97.464ZM99.4428 21.08C91.0108 21.08 86.6708 18.476 86.6708 12.524C86.6708 6.57198 91.0108 3.71998 99.4428 3.71998C108.619 3.71998 113.331 6.57198 113.331 12.524C113.331 18.476 108.619 21.08 99.4428 21.08ZM88.9028 30.752C96.3428 31.992 103.039 32.24 110.231 30.752C108.743 53.568 108.743 74.648 110.231 97.464H88.9028C90.5148 74.772 90.5148 53.692 88.9028 30.752ZM228.606 30.628C235.178 31.992 243.238 32.116 250.678 30.628C242.122 50.344 231.21 78.368 224.638 97.464H199.218C194.506 79.608 190.166 62.744 184.958 45.632C180.122 62.62 175.534 79.484 170.822 97.464H145.526C139.078 78.864 126.926 47.864 119.486 30.628C126.802 31.992 135.606 32.116 141.93 30.628C146.642 47.492 149.37 61.008 157.678 85.684C163.506 66.216 168.838 46.624 172.682 30.628C180.618 31.868 190.414 31.992 198.102 30.628C201.946 46.872 207.03 66.092 212.982 85.436C218.934 65.968 224.266 46.624 228.606 30.628ZM335.257 74.4C334.141 79.112 334.141 86.8 335.257 91.388C324.717 96.596 310.953 99.2 297.685 99.2C267.553 99.2 252.053 85.932 252.053 63.86C252.053 41.54 267.925 28.396 293.097 28.396C317.897 28.396 337.365 41.664 334.761 66.588C306.613 66.092 285.409 66.092 272.637 66.464C274.249 77.996 282.061 85.436 299.917 85.188C311.821 84.94 327.197 80.972 335.257 74.4ZM293.097 41.664C280.697 41.664 273.009 48.112 272.389 60.388C284.293 60.76 300.041 60.76 314.549 60.512C313.061 48.236 305.001 41.664 293.097 41.664ZM428.741 74.4C427.625 79.112 427.625 86.8 428.741 91.388C418.201 96.596 404.437 99.2 391.169 99.2C361.037 99.2 345.537 85.932 345.537 63.86C345.537 41.54 361.409 28.396 386.581 28.396C411.381 28.396 430.849 41.664 428.245 66.588C400.097 66.092 378.893 66.092 366.121 66.464C367.733 77.996 375.545 85.436 393.401 85.188C405.305 84.94 420.681 80.972 428.741 74.4ZM386.581 41.664C374.181 41.664 366.493 48.112 365.873 60.388C377.777 60.76 393.525 60.76 408.033 60.512C406.545 48.236 398.485 41.664 386.581 41.664ZM447.702 0.247984H451.422C451.05 28.024 451.174 65.1 451.174 97.464H447.454C447.454 68.324 447.826 29.636 447.702 0.247984ZM509.541 98.456C484.741 98.456 470.109 85.808 470.109 64.108C470.109 43.4 484.741 30.876 509.541 30.876C534.217 30.876 548.849 43.4 548.849 64.108C548.849 85.808 534.217 98.456 509.541 98.456ZM509.417 95.356C531.613 95.356 544.881 83.948 544.881 64.108C544.881 45.384 531.613 33.976 509.417 33.976C486.849 33.976 474.077 45.384 474.077 64.108C474.077 83.948 486.849 95.356 509.417 95.356ZM634.489 31.744H637.961C637.961 50.716 637.961 69.564 637.961 88.536C637.961 104.408 631.017 124 603.117 124C589.725 124 578.317 121.396 568.769 116.188V112.096C576.705 117.304 590.469 120.9 603.241 120.9C617.501 120.9 634.737 113.956 634.737 88.536V79.732C629.653 91.264 617.377 98.828 602.497 98.828C577.697 98.828 564.925 84.444 564.925 63.736C564.925 44.392 578.813 30.752 599.521 30.752C619.237 30.752 629.777 42.78 634.241 57.288H634.489V31.744ZM602.745 95.728C615.021 95.728 627.917 91.636 634.737 76.136V73.408C634.737 63.736 632.009 33.852 599.769 33.852C581.169 33.852 569.017 46.376 569.017 63.984C569.017 85.436 584.517 95.728 602.745 95.728Z" fill="#FAFAFA"/>
</svg>
