<svg width="477" height="110" viewBox="0 0 477 110" fill="none" xmlns="http://www.w3.org/2000/svg">
<path d="M476.04 85.1343C476.04 92.8075 473.778 98.852 469.253 103.268C464.728 107.756 458.434 110 450.372 110C448.151 110 445.888 109.783 443.585 109.348C441.364 108.987 439.142 108.407 436.921 107.611C434.782 106.815 432.725 105.765 430.751 104.462C428.859 103.232 427.172 101.784 425.691 100.119L428.9 96.6442C431.615 99.9017 434.864 102.218 438.649 103.594C442.515 104.969 446.259 105.657 449.878 105.657C456.707 105.657 461.808 103.919 465.181 100.445C468.636 96.9699 470.364 91.9389 470.364 85.3515V74.7102H469.623C468.8 76.158 467.69 77.5696 466.291 78.945C464.975 80.3204 463.412 81.5148 461.602 82.5283C459.874 83.5417 457.941 84.338 455.802 84.9171C453.663 85.5686 451.4 85.8944 449.015 85.8944C444.901 85.8944 441.158 85.1705 437.785 83.7227C434.494 82.3473 431.656 80.3204 429.27 77.642C426.967 74.9636 425.157 71.7423 423.84 67.978C422.524 64.2138 421.866 59.979 421.866 55.2737C421.866 50.6408 422.524 46.4422 423.84 42.678C425.157 38.8414 426.967 35.62 429.27 33.014C431.656 30.3356 434.494 28.2725 437.785 26.8248C441.158 25.377 444.901 24.6531 449.015 24.6531C453.622 24.6531 457.735 25.7389 461.355 27.9106C464.975 30.0099 467.731 32.5797 469.623 35.62H470.364V25.7389H476.04V85.1343ZM470.364 55.0566C470.364 50.2789 469.788 46.2613 468.636 43.0038C467.484 39.6738 465.921 36.9954 463.947 34.9685C461.972 32.8693 459.669 31.3491 457.036 30.408C454.486 29.467 451.812 28.9964 449.015 28.9964C445.395 28.9964 442.269 29.6841 439.636 31.0595C437.003 32.3625 434.782 34.1723 432.972 36.4887C431.162 38.8052 429.805 41.5922 428.9 44.8497C428.077 48.0348 427.666 51.5095 427.666 55.2737C427.666 59.1104 428.077 62.6212 428.9 65.8064C429.805 68.9915 431.162 71.7785 432.972 74.1673C434.782 76.4838 437.003 78.2935 439.636 79.5965C442.269 80.8995 445.395 81.551 449.015 81.551C451.812 81.551 454.486 81.0805 457.036 80.1394C459.586 79.1984 461.849 77.6782 463.823 75.5789C465.798 73.4796 467.361 70.765 468.512 67.4351C469.746 64.0328 470.364 59.9066 470.364 55.0566Z" fill="#FAFAFA"/>
<path d="M414.66 55.8166C414.66 60.3772 413.92 64.5757 412.439 68.4124C410.958 72.1766 408.86 75.4703 406.146 78.2935C403.513 81.0443 400.346 83.1798 396.644 84.6999C393.024 86.2201 389.034 86.9802 384.673 86.9802C380.313 86.9802 376.282 86.2201 372.58 84.6999C368.878 83.1798 365.71 81.0443 363.078 78.2935C360.445 75.4703 358.388 72.1766 356.908 68.4124C355.427 64.5757 354.686 60.3772 354.686 55.8166C354.686 51.2561 355.427 47.0937 356.908 43.3295C358.388 39.4929 360.445 36.1992 363.078 33.4484C365.71 30.6252 368.878 28.4535 372.58 26.9333C376.282 25.4132 380.313 24.6531 384.673 24.6531C389.034 24.6531 393.024 25.4132 396.644 26.9333C400.346 28.4535 403.513 30.6252 406.146 33.4484C408.86 36.1992 410.958 39.4929 412.439 43.3295C413.92 47.0937 414.66 51.2561 414.66 55.8166ZM408.984 55.8166C408.984 52.1248 408.408 48.6501 407.256 45.3926C406.187 42.1351 404.583 39.3119 402.444 36.9231C400.387 34.4618 397.836 32.5435 394.792 31.1681C391.831 29.7203 388.458 28.9964 384.673 28.9964C380.889 28.9964 377.475 29.7203 374.431 31.1681C371.469 32.5435 368.919 34.4618 366.78 36.9231C364.723 39.3119 363.119 42.1351 361.967 45.3926C360.898 48.6501 360.363 52.1248 360.363 55.8166C360.363 59.5085 360.898 62.9832 361.967 66.2407C363.119 69.4982 364.723 72.3576 366.78 74.8188C368.919 77.2077 371.469 79.126 374.431 80.5738C377.475 81.9492 380.889 82.6369 384.673 82.6369C388.458 82.6369 391.831 81.9492 394.792 80.5738C397.836 79.126 400.387 77.2077 402.444 74.8188C404.583 72.3576 406.187 69.4982 407.256 66.2407C408.408 62.9832 408.984 59.5085 408.984 55.8166Z" fill="#FAFAFA"/>
<path d="M347.646 85.8944H341.969V1.4162H347.646V85.8944Z" fill="#FAFAFA"/>
<path d="M317.167 59.6171H270.15C270.644 64.3224 272.289 68.1229 275.086 71.0185C277.966 73.8416 282.038 75.2532 287.303 75.2532C290.758 75.2532 293.926 74.6017 296.805 73.2987C299.767 71.9957 302.194 69.8602 304.086 66.8923L316.056 74.8189C312.765 78.9451 308.57 82.0578 303.469 84.1571C298.368 86.3288 292.98 87.4146 287.303 87.4146C281.956 87.4146 277.184 86.6907 272.988 85.2429C268.875 83.7952 265.378 81.6959 262.499 78.9451C259.62 76.1943 257.398 72.9006 255.835 69.0639C254.354 65.1549 253.614 60.7392 253.614 55.8167C253.614 51.1114 254.354 46.8405 255.835 43.0038C257.398 39.0948 259.578 35.7649 262.376 33.0141C265.255 30.1909 268.669 28.0192 272.618 26.4991C276.649 24.9789 281.133 24.2188 286.069 24.2188C291.087 24.2188 295.53 24.9789 299.397 26.4991C303.263 28.0192 306.513 30.1909 309.146 33.0141C311.778 35.7649 313.753 39.0948 315.069 43.0038C316.468 46.8405 317.167 51.1114 317.167 55.8167V59.6171ZM300.631 47.8901C300.219 44.343 298.656 41.556 295.941 39.5291C293.226 37.4299 289.936 36.3802 286.069 36.3802C282.202 36.3802 278.912 37.4299 276.197 39.5291C273.564 41.556 271.919 44.343 271.261 47.8901H300.631Z" fill="#FAFAFA"/>
<path d="M247.593 59.3983H200.576C201.07 64.1036 202.715 67.9041 205.512 70.7996C208.392 73.6228 212.464 75.0344 217.729 75.0344C221.185 75.0344 224.352 74.3829 227.231 73.0799C230.193 71.7769 232.62 69.6414 234.512 66.6735L246.482 74.6001C243.192 78.7263 238.996 81.839 233.895 83.9383C228.794 86.11 223.406 87.1958 217.729 87.1958C212.382 87.1958 207.61 86.4719 203.414 85.0241C199.301 83.5763 195.805 81.4771 192.925 78.7263C190.046 75.9755 187.824 72.6818 186.261 68.8451C184.78 64.9361 184.04 60.5204 184.04 55.5979C184.04 50.8926 184.78 46.6216 186.261 42.785C187.824 38.876 190.005 35.5461 192.802 32.7953C195.681 29.9721 199.095 27.8004 203.044 26.2803C207.075 24.7601 211.559 24 216.495 24C221.514 24 225.956 24.7601 229.823 26.2803C233.689 27.8004 236.939 29.9721 239.572 32.7953C242.204 35.5461 244.179 38.876 245.495 42.785C246.894 46.6216 247.593 50.8926 247.593 55.5979V59.3983ZM231.057 47.6713C230.645 44.1242 229.082 41.3372 226.368 39.3103C223.653 37.211 220.362 36.1614 216.495 36.1614C212.629 36.1614 209.338 37.211 206.623 39.3103C203.99 41.3372 202.345 44.1242 201.687 47.6713H231.057Z" fill="#FAFAFA"/>
<path d="M185.886 25.3046L164.784 86.3288H150.47L139.116 53.2107L137.759 47.8901H136.525L135.168 53.2107L123.814 86.3288H109.5L88.3976 25.3046H105.304L114.929 57.0111L116.534 63.5261H117.768L119.372 57.0111L130.108 25.3046H144.176L154.912 57.0111L156.516 63.5261H157.75L159.355 57.0111L168.98 25.3046H185.886Z" fill="#FAFAFA"/>
<path d="M84.2655 9.33821C84.2655 11.8718 83.2782 14.0797 81.3038 15.9618C79.3293 17.7716 76.779 18.6764 73.6528 18.6764C70.5265 18.6764 67.9762 17.7716 66.0017 15.9618C64.0273 14.0797 63.04 11.8718 63.04 9.33821C63.04 6.80459 64.0273 4.63291 66.0017 2.82318C67.9762 0.941061 70.5265 0 73.6528 0C76.779 0 79.3293 0.941061 81.3038 2.82318C83.2782 4.63291 84.2655 6.80459 84.2655 9.33821ZM81.7974 86.4327H65.5081V25.4086H81.7974V86.4327Z" fill="#FAFAFA"/>
<path d="M59.8508 86.3287H44.0551L21.3488 60.0514L16.2893 64.7205V86.3287H0V1.09039H16.2893V47.13L39.3658 25.3046H57.3827V26.9334L30.8509 51.3647L59.8508 84.5914V86.3287Z" fill="#FAFAFA"/>
</svg>
