<svg width="638" height="124" viewBox="0 0 638 124" fill="none" xmlns="http://www.w3.org/2000/svg">
<path d="M80.8481 97.464H52.4521C47.2441 87.544 38.1921 78.616 27.9001 64.852C25.4201 65.348 22.8161 65.596 20.3361 65.596C20.5841 77.872 21.2041 89.156 21.8241 97.464H0.000129372C2.85213 73.284 2.85213 26.66 0.000129372 4.09199C7.44013 3.71998 16.7401 2.60398 23.4361 -1.23978e-05C20.5841 14.756 19.8401 38.192 20.2121 59.892C33.3561 58.156 48.9801 44.888 50.7161 32.24C57.5361 31.868 70.6801 31.496 77.5001 29.016C74.1521 42.408 60.7601 54.064 44.3921 60.512C54.5601 72.168 68.5721 89.28 80.8481 97.464ZM99.4433 21.08C91.0113 21.08 86.6713 18.476 86.6713 12.524C86.6713 6.57198 91.0113 3.71998 99.4433 3.71998C108.619 3.71998 113.331 6.57198 113.331 12.524C113.331 18.476 108.619 21.08 99.4433 21.08ZM88.9033 30.752C96.3433 31.992 103.039 32.24 110.231 30.752C108.743 53.568 108.743 74.648 110.231 97.464H88.9033C90.5153 74.772 90.5153 53.692 88.9033 30.752ZM228.607 30.628C235.179 31.992 243.239 32.116 250.679 30.628C242.123 50.344 231.211 78.368 224.639 97.464H199.219C194.507 79.608 190.167 62.744 184.959 45.632C180.123 62.62 175.535 79.484 170.823 97.464H145.527C139.079 78.864 126.927 47.864 119.487 30.628C126.803 31.992 135.607 32.116 141.931 30.628C146.643 47.492 149.371 61.008 157.679 85.684C163.507 66.216 168.839 46.624 172.683 30.628C180.619 31.868 190.415 31.992 198.103 30.628C201.947 46.872 207.031 66.092 212.983 85.436C218.935 65.968 224.267 46.624 228.607 30.628ZM335.257 74.4C334.141 79.112 334.141 86.8 335.257 91.388C324.717 96.596 310.953 99.2 297.685 99.2C267.553 99.2 252.053 85.932 252.053 63.86C252.053 41.54 267.925 28.396 293.097 28.396C317.897 28.396 337.365 41.664 334.761 66.588C306.613 66.092 285.409 66.092 272.637 66.464C274.249 77.996 282.061 85.436 299.917 85.188C311.821 84.94 327.197 80.972 335.257 74.4ZM293.097 41.664C280.697 41.664 273.009 48.112 272.389 60.388C284.293 60.76 300.041 60.76 314.549 60.512C313.061 48.236 305.001 41.664 293.097 41.664ZM428.742 74.4C427.626 79.112 427.626 86.8 428.742 91.388C418.202 96.596 404.438 99.2 391.17 99.2C361.038 99.2 345.538 85.932 345.538 63.86C345.538 41.54 361.41 28.396 386.582 28.396C411.382 28.396 430.85 41.664 428.246 66.588C400.098 66.092 378.894 66.092 366.122 66.464C367.734 77.996 375.546 85.436 393.402 85.188C405.306 84.94 420.682 80.972 428.742 74.4ZM386.582 41.664C374.182 41.664 366.494 48.112 365.874 60.388C377.778 60.76 393.526 60.76 408.034 60.512C406.546 48.236 398.486 41.664 386.582 41.664ZM447.702 0.247984H451.422C451.05 28.024 451.174 65.1 451.174 97.464H447.454C447.454 68.324 447.826 29.636 447.702 0.247984ZM509.541 98.456C484.741 98.456 470.109 85.808 470.109 64.108C470.109 43.4 484.741 30.876 509.541 30.876C534.217 30.876 548.849 43.4 548.849 64.108C548.849 85.808 534.217 98.456 509.541 98.456ZM509.417 95.356C531.613 95.356 544.881 83.948 544.881 64.108C544.881 45.384 531.613 33.976 509.417 33.976C486.849 33.976 474.077 45.384 474.077 64.108C474.077 83.948 486.849 95.356 509.417 95.356ZM634.49 31.744H637.962C637.962 50.716 637.962 69.564 637.962 88.536C637.962 104.408 631.018 124 603.118 124C589.726 124 578.318 121.396 568.77 116.188V112.096C576.706 117.304 590.47 120.9 603.242 120.9C617.502 120.9 634.738 113.956 634.738 88.536V79.732C629.654 91.264 617.378 98.828 602.498 98.828C577.698 98.828 564.926 84.444 564.926 63.736C564.926 44.392 578.814 30.752 599.522 30.752C619.238 30.752 629.778 42.78 634.242 57.288H634.49V31.744ZM602.746 95.728C615.022 95.728 627.918 91.636 634.738 76.136V73.408C634.738 63.736 632.01 33.852 599.77 33.852C581.17 33.852 569.018 46.376 569.018 63.984C569.018 85.436 584.518 95.728 602.746 95.728Z" fill="#222222"/>
</svg>
