<svg width="477" height="110" viewBox="0 0 477 110" fill="none" xmlns="http://www.w3.org/2000/svg">
<path d="M477 85.1343C477 92.8075 474.738 98.852 470.213 103.268C465.688 107.756 459.394 110 451.332 110C449.111 110 446.848 109.783 444.545 109.348C442.324 108.987 440.102 108.407 437.881 107.611C435.742 106.815 433.685 105.765 431.711 104.462C429.819 103.232 428.132 101.784 426.651 100.119L429.86 96.6442C432.575 99.9017 435.824 102.218 439.609 103.594C443.475 104.969 447.219 105.657 450.838 105.657C457.667 105.657 462.767 103.919 466.141 100.445C469.596 96.9699 471.323 91.9389 471.323 85.3515V74.7102H470.583C469.76 76.158 468.65 77.5696 467.251 78.945C465.935 80.3204 464.372 81.5148 462.562 82.5283C460.834 83.5417 458.901 84.338 456.762 84.9171C454.623 85.5686 452.36 85.8944 449.975 85.8944C445.861 85.8944 442.118 85.1705 438.745 83.7227C435.454 82.3473 432.616 80.3204 430.23 77.642C427.926 74.9636 426.117 71.7423 424.8 67.978C423.484 64.2138 422.826 59.979 422.826 55.2737C422.826 50.6408 423.484 46.4422 424.8 42.678C426.117 38.8414 427.926 35.62 430.23 33.014C432.616 30.3356 435.454 28.2725 438.745 26.8248C442.118 25.377 445.861 24.6531 449.975 24.6531C454.582 24.6531 458.695 25.7389 462.315 27.9106C465.935 30.0099 468.691 32.5797 470.583 35.62H471.323V25.7389H477V85.1343ZM471.323 55.0566C471.323 50.2789 470.748 46.2613 469.596 43.0038C468.444 39.6738 466.881 36.9954 464.906 34.9685C462.932 32.8693 460.628 31.3491 457.996 30.408C455.446 29.467 452.772 28.9964 449.975 28.9964C446.355 28.9964 443.229 29.6841 440.596 31.0595C437.963 32.3625 435.742 34.1723 433.932 36.4887C432.122 38.8052 430.765 41.5922 429.86 44.8497C429.037 48.0348 428.626 51.5095 428.626 55.2737C428.626 59.1104 429.037 62.6212 429.86 65.8064C430.765 68.9915 432.122 71.7785 433.932 74.1673C435.742 76.4838 437.963 78.2935 440.596 79.5965C443.229 80.8995 446.355 81.551 449.975 81.551C452.772 81.551 455.446 81.0805 457.996 80.1394C460.546 79.1984 462.809 77.6782 464.783 75.5789C466.758 73.4796 468.321 70.765 469.472 67.4351C470.706 64.0328 471.323 59.9066 471.323 55.0566Z" fill="#222222"/>
<path d="M415.62 55.8166C415.62 60.3772 414.88 64.5757 413.399 68.4124C411.918 72.1766 409.82 75.4703 407.106 78.2935C404.473 81.0443 401.306 83.1798 397.604 84.6999C393.984 86.2201 389.994 86.9802 385.633 86.9802C381.273 86.9802 377.242 86.2201 373.54 84.6999C369.838 83.1798 366.67 81.0443 364.038 78.2935C361.405 75.4703 359.348 72.1766 357.868 68.4124C356.387 64.5757 355.646 60.3772 355.646 55.8166C355.646 51.2561 356.387 47.0937 357.868 43.3295C359.348 39.4929 361.405 36.1992 364.038 33.4484C366.67 30.6252 369.838 28.4535 373.54 26.9333C377.242 25.4132 381.273 24.6531 385.633 24.6531C389.994 24.6531 393.984 25.4132 397.604 26.9333C401.306 28.4535 404.473 30.6252 407.106 33.4484C409.82 36.1992 411.918 39.4929 413.399 43.3295C414.88 47.0937 415.62 51.2561 415.62 55.8166ZM409.944 55.8166C409.944 52.1248 409.368 48.6501 408.216 45.3926C407.147 42.1351 405.542 39.3119 403.403 36.9231C401.347 34.4618 398.796 32.5435 395.752 31.1681C392.791 29.7203 389.418 28.9964 385.633 28.9964C381.849 28.9964 378.435 29.7203 375.391 31.1681C372.429 32.5435 369.879 34.4618 367.74 36.9231C365.683 39.3119 364.079 42.1351 362.927 45.3926C361.858 48.6501 361.323 52.1248 361.323 55.8166C361.323 59.5085 361.858 62.9832 362.927 66.2407C364.079 69.4982 365.683 72.3576 367.74 74.8188C369.879 77.2077 372.429 79.126 375.391 80.5738C378.435 81.9492 381.849 82.6369 385.633 82.6369C389.418 82.6369 392.791 81.9492 395.752 80.5738C398.796 79.126 401.347 77.2077 403.403 74.8188C405.542 72.3576 407.147 69.4982 408.216 66.2407C409.368 62.9832 409.944 59.5085 409.944 55.8166Z" fill="#222222"/>
<path d="M348.606 85.8944H342.929V1.4162H348.606V85.8944Z" fill="#222222"/>
<path d="M318.127 59.6171H271.11C271.604 64.3224 273.249 68.1229 276.046 71.0185C278.926 73.8416 282.998 75.2532 288.263 75.2532C291.718 75.2532 294.886 74.6017 297.765 73.2987C300.727 71.9957 303.154 69.8602 305.046 66.8923L317.016 74.8189C313.725 78.9451 309.53 82.0578 304.429 84.1571C299.328 86.3288 293.94 87.4146 288.263 87.4146C282.916 87.4146 278.144 86.6907 273.948 85.2429C269.835 83.7952 266.338 81.6959 263.459 78.9451C260.58 76.1943 258.358 72.9006 256.795 69.0639C255.314 65.1549 254.574 60.7392 254.574 55.8167C254.574 51.1114 255.314 46.8405 256.795 43.0038C258.358 39.0948 260.538 35.7649 263.336 33.0141C266.215 30.1909 269.629 28.0192 273.578 26.4991C277.609 24.9789 282.093 24.2188 287.029 24.2188C292.047 24.2188 296.49 24.9789 300.357 26.4991C304.223 28.0192 307.473 30.1909 310.106 33.0141C312.738 35.7649 314.713 39.0948 316.029 43.0038C317.427 46.8405 318.127 51.1114 318.127 55.8167V59.6171ZM301.591 47.8901C301.179 44.343 299.616 41.556 296.901 39.5291C294.186 37.4299 290.896 36.3802 287.029 36.3802C283.162 36.3802 279.872 37.4299 277.157 39.5291C274.524 41.556 272.879 44.343 272.221 47.8901H301.591Z" fill="#222222"/>
<path d="M248.553 59.3983H201.536C202.03 64.1036 203.675 67.9041 206.472 70.7996C209.352 73.6228 213.424 75.0344 218.689 75.0344C222.145 75.0344 225.312 74.3829 228.191 73.0799C231.153 71.7769 233.58 69.6414 235.472 66.6735L247.442 74.6001C244.151 78.7263 239.956 81.839 234.855 83.9383C229.754 86.11 224.366 87.1958 218.689 87.1958C213.342 87.1958 208.57 86.4719 204.374 85.0241C200.261 83.5763 196.764 81.4771 193.885 78.7263C191.006 75.9755 188.784 72.6818 187.221 68.8451C185.74 64.9361 185 60.5204 185 55.5979C185 50.8926 185.74 46.6216 187.221 42.785C188.784 38.876 190.965 35.5461 193.762 32.7953C196.641 29.9721 200.055 27.8004 204.004 26.2803C208.035 24.7601 212.519 24 217.455 24C222.474 24 226.916 24.7601 230.783 26.2803C234.649 27.8004 237.899 29.9721 240.532 32.7953C243.164 35.5461 245.139 38.876 246.455 42.785C247.854 46.6216 248.553 50.8926 248.553 55.5979V59.3983ZM232.017 47.6713C231.605 44.1242 230.042 41.3372 227.327 39.3103C224.613 37.211 221.322 36.1614 217.455 36.1614C213.589 36.1614 210.298 37.211 207.583 39.3103C204.95 41.3372 203.305 44.1242 202.647 47.6713H232.017Z" fill="#222222"/>
<path d="M186.846 25.3046L165.744 86.3288H151.43L140.076 53.2107L138.719 47.8901H137.485L136.128 53.2107L124.774 86.3288H110.46L89.3575 25.3046H106.264L115.889 57.0111L117.494 63.5261H118.728L120.332 57.0111L131.068 25.3046H145.136L155.872 57.0111L157.476 63.5261H158.71L160.315 57.0111L169.94 25.3046H186.846Z" fill="#222222"/>
<path d="M85.2254 9.33821C85.2254 11.8718 84.2382 14.0797 82.2637 15.9618C80.2893 17.7716 77.7389 18.6764 74.6127 18.6764C71.4865 18.6764 68.9361 17.7716 66.9617 15.9618C64.9872 14.0797 64 11.8718 64 9.33821C64 6.80459 64.9872 4.63291 66.9617 2.82318C68.9361 0.941061 71.4865 0 74.6127 0C77.7389 0 80.2893 0.941061 82.2637 2.82318C84.2382 4.63291 85.2254 6.80459 85.2254 9.33821ZM82.7574 86.4327H66.4681V25.4086H82.7574V86.4327Z" fill="#222222"/>
<path d="M60.8107 86.3287H45.0151L22.3088 60.0514L17.2492 64.7205V86.3287H0.959961V1.09039H17.2492V47.13L40.3257 25.3046H58.3427V26.9334L31.8109 51.3647L60.8107 84.5914V86.3287Z" fill="#222222"/>
</svg>
